<?xml version="1.0" encoding="UTF-8" standalone="no"?>
<!DOCTYPE svg PUBLIC "-//W3C//DTD SVG 1.1//EN" "http://www.w3.org/Graphics/SVG/1.1/DTD/svg11.dtd">
<svg width="100%" height="100%" viewBox="0 0 30 30" version="1.1" xmlns="http://www.w3.org/2000/svg" xmlns:xlink="http://www.w3.org/1999/xlink" xml:space="preserve" xmlns:serif="http://www.serif.com/" style="fill-rule:evenodd;clip-rule:evenodd;stroke-linejoin:round;stroke-miterlimit:2;">
    <g transform="matrix(0.0143954,0,0,0.0143954,-0.0195893,-0.0345307)">
        <path d="M1029.11,457.102C1353.24,457.102 1964.22,720.261 1964.22,1044.4C1964.22,1368.54 1353.24,1631.69 1029.11,1631.69C704.968,1631.69 122.503,1345.73 122.503,1021.59C122.503,697.453 704.968,457.102 1029.11,457.102ZM1043.36,617.533C807.767,617.533 616.495,808.805 616.495,1044.4C616.495,1279.99 807.767,1471.27 1043.36,1471.27C1278.95,1471.27 1470.23,1279.99 1470.23,1044.4C1470.23,808.805 1278.95,617.533 1043.36,617.533Z"/>
    </g>
    <g transform="matrix(0.0599809,0,0,0.0599809,0,0)">
        <g transform="matrix(0.24,0,0,0.24,0,0)">
            <path d="M1318.48,619.076L1758.52,185.042C1797.81,146.285 1861.18,146.721 1899.94,186.014C1938.69,225.308 1938.26,288.675 1898.96,327.432L1483.33,737.388C1449.75,706.7 1418.69,679.742 1403.75,664.804C1383.42,644.468 1346.11,637.763 1318.48,619.076Z"/>
        </g>
        <g transform="matrix(0.24,0,0,0.24,0,0)">
            <path d="M1280.72,945.675L945.031,1274.54C905.737,1313.3 842.37,1312.86 803.613,1273.57C764.855,1234.27 765.291,1170.91 804.585,1132.15L1140.28,803.285C1179.57,764.528 1242.94,764.963 1281.69,804.257C1320.45,843.55 1320.02,906.918 1280.72,945.675Z"/>
        </g>
        <g transform="matrix(0.24,0,0,0.24,0,0)">
            <path d="M746.51,1464.15L330.754,1874.23C291.46,1912.99 228.093,1912.56 189.336,1873.26C150.579,1833.97 151.014,1770.6 190.308,1731.84L598.345,1329.38C621.245,1355.66 643.787,1379.24 668.363,1404.78C677.123,1413.88 714.664,1440.99 746.51,1464.15Z"/>
        </g>
    </g>
</svg>
