<?xml version="1.0" encoding="UTF-8" standalone="no"?><!DOCTYPE svg PUBLIC "-//W3C//DTD SVG 1.1//EN" "http://www.w3.org/Graphics/SVG/1.1/DTD/svg11.dtd"><svg width="100%" height="100%" viewBox="0 0 30 30" version="1.1" xmlns="http://www.w3.org/2000/svg" xmlns:xlink="http://www.w3.org/1999/xlink" xml:space="preserve" xmlns:serif="http://www.serif.com/" style="fill-rule:evenodd;clip-rule:evenodd;stroke-linejoin:round;stroke-miterlimit:2;"><g><path d="M1.756,30c0.177,-1.312 0.474,-2.514 0.968,-3.496c1.272,-2.528 4.239,-3.152 6.225,-4.527c1.368,2.361 3.47,3.183 5.826,3.183c2.36,0 4.466,-0.828 5.834,-3.196c1.987,1.371 5.023,2.315 6.298,4.841c0.466,0.924 0.753,2.014 0.926,3.195l-26.077,-0Z"/></g><g><path d="M21.019,19.241c0.023,0.014 -2.47,3.93 -6.246,3.93c-4.309,-0 -6.247,-3.911 -6.217,-3.93c-0.602,-0.888 -1.086,-1.908 -1.42,-3.019c-0.287,-1.058 -0.443,-2.194 -0.443,-3.375c0,-5.699 3.621,-9.786 8.08,-9.786c4.46,-0 8.08,4.087 8.08,9.786c0,1.514 -0.255,2.952 -0.714,4.248c-0.302,0.776 -0.679,1.496 -1.12,2.146Zm-6.324,-8.493c-0.917,-1.834 -2.751,-1.834 -3.667,-0.917c-0.917,0.917 -0.917,2.752 -0,4.586c0.641,1.376 2.292,2.752 3.667,3.669c1.375,-0.917 3.025,-2.293 3.666,-3.669c0.917,-1.834 0.917,-3.669 0,-4.586c-0.916,-0.917 -2.75,-0.917 -3.666,0.917Z"/></g></svg>