<?xml version="1.0" encoding="UTF-8" standalone="no"?><!DOCTYPE svg PUBLIC "-//W3C//DTD SVG 1.1//EN" "http://www.w3.org/Graphics/SVG/1.1/DTD/svg11.dtd"><svg width="100%" height="100%" viewBox="0 0 30 30" version="1.1" xmlns="http://www.w3.org/2000/svg" xmlns:xlink="http://www.w3.org/1999/xlink" xml:space="preserve" xmlns:serif="http://www.serif.com/" style="fill-rule:evenodd;clip-rule:evenodd;stroke-linejoin:round;stroke-miterlimit:2;"><g><path d="M10.609,21.212l-5.848,5.768c-0.565,0.558 -1.478,0.552 -2.035,-0.014c-0.558,-0.565 -0.552,-1.478 0.014,-2.035l4.844,-4.779l-0.001,-0.001l0.775,-0.764c-0.334,-0.3 -0.713,-0.656 -1.153,-1.091c-1.663,-1.647 -2.295,-4.884 -2.295,-7.406c-0,-4.928 3.622,-8.507 8.549,-8.507c3.528,0 6.064,1.766 7.517,4.559l4.339,-4.278c0.565,-0.558 1.477,-0.552 2.035,0.014c0.558,0.565 0.552,1.478 -0.014,2.036l-5.295,5.222c0.047,0.215 0.09,0.433 0.129,0.654c0.002,0.014 0.004,0.028 0.007,0.042c0.005,0.028 0.009,0.056 0.013,0.085c-0.05,0.783 -0.894,0.976 -1.357,0.461c-0.022,-0.024 -0.084,-0.091 -0.119,-0.172c-0.004,-0.043 -0.009,-0.084 -0.016,-0.122c-0.002,-0.013 -0.004,-0.025 -0.006,-0.037c-0.703,-4.041 -3.132,-6.964 -7.233,-6.964c-4.061,0 -7.049,2.946 -7.049,7.007c-0,2.149 0.434,4.937 1.85,6.34c2.633,2.607 3.113,2.404 4.77,4.247c0.892,0.992 1.618,2.092 2.35,2.976c0.591,0.714 1.154,1.3 1.895,1.405c0.895,0.127 1.535,0.03 1.976,-0.321c0.443,-0.352 0.661,-0.927 0.792,-1.629c0.328,-1.761 0.236,-2.879 0.083,-5.414c-0.001,-0.026 -0.003,-0.051 -0.004,-0.077c0.505,-0.008 0.83,0.003 1.326,-0.03c0.001,0.015 0.001,0.03 0.002,0.046c0.161,2.672 0.413,3.894 0.067,5.75c-0.206,1.107 -0.634,1.973 -1.332,2.528c-0.701,0.557 -1.697,0.834 -3.12,0.632c-0.888,-0.125 -1.654,-0.639 -2.371,-1.399c-0.886,-0.939 -1.713,-2.278 -2.779,-3.464c-0.516,-0.574 -0.917,-0.946 -1.306,-1.268Z"/></g><g><path d="M11.119,17.945c0,0 2.156,1.804 4.89,1.147c0.08,0.183 0.182,0.382 0.307,0.581c0.471,0.747 1.264,1.46 2.489,1.428c0.998,-0.025 1.721,-0.288 2.175,-0.768c0.463,-0.489 0.612,-1.25 0.455,-2.398c-0.055,-0.41 -0.34,-0.69 -0.75,-0.634c-0.41,0.056 -0.698,0.434 -0.642,0.844c0.075,0.546 0.068,0.925 -0.152,1.157c-0.229,0.242 -0.621,0.287 -1.124,0.3c-0.593,0.015 -0.954,-0.368 -1.183,-0.73c-0.274,-0.435 -0.373,-0.873 -0.373,-0.873c-0.047,-0.214 -0.185,-0.398 -0.379,-0.501c-0.193,-0.104 -0.423,-0.117 -0.627,-0.037c-2.085,0.816 -3.901,-0.445 -3.961,-0.509c-1.103,-1.293 -0.975,-2.402 -0.799,-3.167c0.178,-0.776 0.941,-1.188 1.715,-1.321c0.772,-0.134 1.615,-0.02 1.989,0.504c0.241,0.337 0.71,0.415 1.046,0.175c0.337,-0.241 0.415,-0.71 0.175,-1.046c-0.664,-0.93 -2.096,-1.347 -3.465,-1.111c-1.366,0.235 -2.607,1.092 -2.922,2.463c-0.247,1.074 -0.426,2.667 1.127,4.486c0.003,0.003 0.006,0.007 0.009,0.01Zm2.713,-3.386c-0.411,0.047 -0.707,0.419 -0.66,0.83c0.047,0.412 0.419,0.707 0.831,0.66c-0,0 1.661,-0.19 3.148,-1.01c1.62,-0.894 3.037,-2.48 2.276,-5.224c-1.669,-6.02 -7.651,-4.311 -8.642,-3.782c-0.67,0.357 -1.561,0.861 -2.219,1.948c-0.627,1.036 -1.057,2.634 -0.76,5.246c0.047,0.411 0.419,0.707 0.83,0.66c0.411,-0.047 0.707,-0.418 0.66,-0.83c-0.243,-2.136 0.04,-3.453 0.553,-4.299c0.481,-0.795 1.152,-1.141 1.642,-1.401c0.745,-0.398 5.236,-1.668 6.491,2.858c0.513,1.85 -0.464,2.908 -1.556,3.511c-1.225,0.676 -2.594,0.833 -2.594,0.833Z"/></g></svg>