<?xml version="1.0" encoding="UTF-8" standalone="no"?><!DOCTYPE svg PUBLIC "-//W3C//DTD SVG 1.1//EN" "http://www.w3.org/Graphics/SVG/1.1/DTD/svg11.dtd"><svg width="100%" height="100%" viewBox="0 0 30 30" version="1.1" xmlns="http://www.w3.org/2000/svg" xmlns:xlink="http://www.w3.org/1999/xlink" xml:space="preserve" xmlns:serif="http://www.serif.com/" style="fill-rule:evenodd;clip-rule:evenodd;stroke-linejoin:round;stroke-miterlimit:2;"><g><g><path d="M24.337,7.935c0,0 -2.789,-2.209 -8.143,0.378c-1.263,0.61 -2.38,1.662 -2.38,1.662c0,0 -1.37,1.281 -1.06,3.392c0.311,2.111 2.395,5.949 2.395,5.949l-5.157,9.038l5.256,0l-0.761,-0.967l3.828,-7.388l-1.758,-5.68l2.255,3.507l0.326,0.445l0.005,-6.508l0.807,-0.372l-0.041,9.87l1.904,0.559c-0,0 0.351,-5.132 0.393,-6.932c-0,-0 -1.516,-1.133 -1.185,-3.73c0.232,-1.82 1.061,-3.065 3.316,-3.223Z"/></g><g><path d="M24.338,7.942c-1.126,0.079 -1.895,0.429 -2.412,0.986c-0.518,0.558 -0.782,1.322 -0.898,2.231c-0.33,2.592 1.182,3.723 1.182,3.723c0.002,0.002 0.003,0.004 0.003,0.006c-0.041,1.801 -0.393,6.933 -0.393,6.933c-0,0.002 -0.001,0.004 -0.003,0.005c-0.002,0.001 -0.004,0.002 -0.006,0.001l-1.904,-0.559c-0.003,-0.001 -0.005,-0.003 -0.005,-0.007l0.041,-9.859l-0.793,0.366l-0.005,6.503c0,0.003 -0.002,0.006 -0.004,0.007c-0.003,0.001 -0.007,-0 -0.009,-0.003l-0.326,-0.444c0,-0 0,-0.001 0,-0.001l-2.227,-3.463l1.743,5.63c0.001,0.002 0.001,0.004 -0,0.005l-3.826,7.384l0.757,0.964c0.002,0.002 0.002,0.005 0.001,0.007c-0.001,0.003 -0.003,0.005 -0.006,0.005l-5.256,-0c-0.003,-0 -0.005,-0.002 -0.007,-0.004c-0.001,-0.002 -0.001,-0.005 0,-0.007l5.156,-9.035c-0.071,-0.131 -2.089,-3.874 -2.394,-5.948c-0.311,-2.115 1.063,-3.398 1.063,-3.398c-0,0 1.117,-1.053 2.381,-1.664c5.359,-2.589 8.151,-0.377 8.151,-0.377c0.002,0.002 0.003,0.005 0.002,0.008c-0.001,0.003 -0.003,0.005 -0.006,0.005Zm-0.02,-0.013c-0.227,-0.167 -3,-2.084 -8.12,0.39c-1.263,0.61 -2.379,1.662 -2.379,1.662l0,-0c0,-0 -1.368,1.278 -1.058,3.385c0.311,2.11 2.395,5.947 2.395,5.947c0.001,0.002 0.001,0.005 -0,0.007l-5.152,9.027l5.229,0l-0.751,-0.956c-0.002,-0.002 -0.002,-0.005 -0.001,-0.008l3.827,-7.384l-1.758,-5.678c-0.001,-0.003 0,-0.007 0.003,-0.009c0.004,-0.001 0.008,-0 0.01,0.003l2.255,3.507l0.313,0.427l0.005,-6.486c0,-0.003 0.002,-0.005 0.004,-0.006l0.807,-0.373c0.002,-0.001 0.005,-0.001 0.007,0.001c0.002,0.001 0.003,0.003 0.003,0.006l-0.041,9.865l1.89,0.555c0.016,-0.238 0.352,-5.16 0.393,-6.92c-0.075,-0.057 -1.508,-1.199 -1.185,-3.734c0.116,-0.912 0.382,-1.679 0.901,-2.239c0.516,-0.556 1.283,-0.907 2.403,-0.989Z" style="fill:none;"/></g><g><path d="M22.991,18.091l0.89,1.407l-0.828,7.553l1.381,1.303l-4.656,0l0.606,-5.731l2.218,0.542l0.389,-5.074"/></g><g><path d="M22.984,18.091c0,-0.003 0.001,-0.005 0.003,-0.006c0.001,-0.001 0.003,-0.001 0.005,-0.001c0.002,0 0.004,0.001 0.005,0.003l0.89,1.407c0.001,0.002 0.001,0.004 0.001,0.005l-0.827,7.549l1.378,1.301c0.002,0.002 0.003,0.005 0.002,0.008c-0.001,0.003 -0.004,0.005 -0.007,0.005l-4.656,-0c-0.002,-0 -0.004,-0.001 -0.005,-0.003c-0.001,-0.001 -0.002,-0.003 -0.002,-0.005l0.605,-5.732c0.001,-0.002 0.002,-0.004 0.003,-0.005c0.002,-0.001 0.004,-0.002 0.006,-0.001c0,0 2.063,0.504 2.211,0.54l0.388,-5.065Zm0.013,0.022l-0.388,5.053c-0,0.002 -0.001,0.004 -0.003,0.005c-0.001,0.001 -0.004,0.002 -0.006,0.001l-2.21,-0.54l-0.604,5.715l4.63,0l-1.368,-1.291c-0.001,-0.001 -0.002,-0.003 -0.002,-0.006l0.827,-7.55l-0.876,-1.387Z" style="fill:none;"/></g><g><path d="M27.109,9.667c1.59,1.202 2.056,3.269 1.04,4.612c-1.016,1.344 -3.132,1.459 -4.721,0.258c-1.59,-1.202 -2.056,-3.269 -1.04,-4.613c1.016,-1.344 3.131,-1.459 4.721,-0.257Z"/></g><g><path d="M23.799,15.599c0,-0 1.407,0.372 2.297,0.393c0,0 0.621,3.683 0.228,5.297l-1.925,0.394c0,-0 0.311,-4.284 -0.6,-6.084Z"/></g><g><path d="M23.801,15.592c0,-0 1.406,0.372 2.295,0.393c0.004,-0 0.007,0.002 0.007,0.006c0,-0 0.621,3.685 0.228,5.3c-0.001,0.003 -0.003,0.005 -0.006,0.006l-1.924,0.393c-0.003,0 -0.005,-0 -0.007,-0.002c-0.001,-0.001 -0.002,-0.004 -0.002,-0.006c0,0 0.112,-1.541 0.005,-3.163c-0.072,-1.081 -0.241,-2.197 -0.604,-2.917c-0.002,-0.002 -0.001,-0.005 0.001,-0.008c0.001,-0.002 0.004,-0.003 0.007,-0.002Zm0.012,0.018c0.359,0.721 0.527,1.832 0.598,2.908c0.102,1.549 0.005,3.025 -0.004,3.156l1.911,-0.391c0.381,-1.578 -0.201,-5.12 -0.228,-5.284c-0.836,-0.021 -2.122,-0.349 -2.277,-0.389Z" style="fill:none;"/></g><g><path d="M25.598,2.165c0.209,-0.2 0.541,-0.193 0.741,0.015c0.2,0.209 0.194,0.541 -0.015,0.741c-0.173,0.166 -0.268,0.318 -0.29,0.473c-0.023,0.157 0.025,0.308 0.087,0.458c0.129,0.31 0.33,0.613 0.474,0.915c0.206,0.433 0.305,0.869 0.175,1.309c-0.086,0.292 -0.273,0.596 -0.64,0.898c-0.223,0.184 -0.553,0.152 -0.737,-0.071c-0.184,-0.223 -0.152,-0.554 0.071,-0.738c0.169,-0.139 0.271,-0.265 0.305,-0.399c0.054,-0.21 -0.049,-0.409 -0.153,-0.615c-0.119,-0.236 -0.263,-0.472 -0.379,-0.712c-0.206,-0.426 -0.321,-0.866 -0.217,-1.319c0.07,-0.307 0.239,-0.629 0.578,-0.955Z"/></g><g><path d="M21.813,2.245c-0.132,-0.257 -0.029,-0.573 0.229,-0.704c0.257,-0.132 0.573,-0.029 0.704,0.228c0.202,0.396 0.449,0.786 0.596,1.176c0.142,0.379 0.198,0.76 0.109,1.145c-0.086,0.374 -0.31,0.764 -0.781,1.152c-0.223,0.184 -0.553,0.153 -0.737,-0.071c-0.184,-0.223 -0.153,-0.553 0.071,-0.737c0.23,-0.19 0.366,-0.366 0.418,-0.549c0.079,-0.274 -0.033,-0.537 -0.164,-0.806c-0.134,-0.276 -0.302,-0.553 -0.445,-0.834Z"/></g></g><g><path d="M6.669,3.219l3.662,-0l-3.559,3.986c0.16,-0.057 0.328,-0.097 0.505,-0.119c0.177,-0.023 0.373,-0.035 0.59,-0.035c0.593,0 1.175,0.157 1.745,0.471c0.571,0.314 1.038,0.761 1.403,1.343c0.365,0.582 0.548,1.272 0.548,2.07c-0,0.981 -0.22,1.805 -0.659,2.473c-0.439,0.667 -1.027,1.169 -1.762,1.505c-0.736,0.337 -1.549,0.505 -2.438,0.505c-0.901,-0 -1.72,-0.168 -2.456,-0.505c-0.735,-0.336 -1.323,-0.838 -1.762,-1.505c-0.439,-0.668 -0.659,-1.492 -0.659,-2.473c0,-0.638 0.134,-1.232 0.403,-1.779c0.268,-0.548 0.596,-1.061 0.983,-1.54l3.456,-4.397Zm-1.984,7.716c-0,0.616 0.191,1.107 0.573,1.472c0.382,0.365 0.864,0.547 1.446,0.547c0.57,0 1.046,-0.182 1.428,-0.547c0.382,-0.365 0.573,-0.856 0.573,-1.472c0,-0.604 -0.191,-1.095 -0.573,-1.471c-0.382,-0.377 -0.858,-0.565 -1.428,-0.565c-0.582,0 -1.064,0.188 -1.446,0.565c-0.382,0.376 -0.573,0.867 -0.573,1.471Z" style="fill-rule:nonzero;"/></g></svg>