<?xml version="1.0" encoding="UTF-8" standalone="no"?><!DOCTYPE svg PUBLIC "-//W3C//DTD SVG 1.1//EN" "http://www.w3.org/Graphics/SVG/1.1/DTD/svg11.dtd"><svg width="100%" height="100%" viewBox="0 0 30 30" version="1.1" xmlns="http://www.w3.org/2000/svg" xmlns:xlink="http://www.w3.org/1999/xlink" xml:space="preserve" xmlns:serif="http://www.serif.com/" style="fill-rule:evenodd;clip-rule:evenodd;stroke-linejoin:round;stroke-miterlimit:2;"><g><path d="M0,25.307l1.254,-0.483c0.809,-0.312 1.718,0.091 2.03,0.899l0.156,0.405l0.679,-0.28l-0.206,-0.763c-0.229,-0.851 0.276,-1.728 1.126,-1.957l4.872,-1.312c0.85,-0.229 1.727,0.275 1.956,1.126l0.132,0.489l0.818,-0.154c-0.287,-0.452 -0.208,-1.06 0.21,-1.42c4.563,-1.502 7.347,-4.19 8.908,-7.693c0.459,-0.396 1.153,-0.345 1.549,0.113l1.436,1.663c0.396,0.459 0.188,0.862 -0.114,1.549c-1.811,4.128 -4.873,6.567 -8.908,7.693c-0.59,0.165 -1.153,0.345 -1.549,-0.114l-0.085,-0.097l-1.761,0.331l0.195,0.723c0.229,0.85 -0.276,1.727 -1.126,1.956l-4.872,1.312c-0.85,0.23 -1.727,-0.275 -1.956,-1.126l-0.115,-0.425l-0.489,0.201l0.273,0.709c0.177,0.46 0.124,0.952 -0.104,1.348l-2.931,0l0.798,-0.308c0.447,-0.172 0.669,-0.675 0.497,-1.121l-0.008,-0.021l-1.074,0.443c-0.248,0.102 -0.532,-0.017 -0.635,-0.265l-0.37,-0.899c-0.102,-0.248 0.016,-0.533 0.264,-0.635l1.086,-0.447c-0.226,-0.305 -0.637,-0.436 -1.008,-0.292l-0.928,0.357l0,-1.505Zm21.905,4.693l-3.803,-4.321c5.761,-1.021 7.493,-6.538 7.493,-6.538l4.405,4.018l0,6.841l-8.095,0Zm-8.475,-10.289l-0.833,-0.918c-0,0 -3.753,1.043 -6.421,-0.041c0,-0 -2.335,-1.168 -2.835,-1.918l0.848,-2.521l1.838,1.26c-0,-0 0.932,0.536 2.234,0.552l-5.929,-4.853l1.497,-2.263l2,1.167l0.274,-0.33l-1.757,-2.161l2.054,-2.113l2.26,1.959l0.317,-0.237l-1.496,-2.302l2.707,-1.752l2.025,2.169l0.366,-0.25l-1.115,-1.862l2.594,-0.617c0,-0 3.811,5.685 4.951,9.66l0.934,0.88c-0,0 -0.537,4.976 -6.513,6.491Zm-3.094,4.034c-0.211,-0.274 -0.574,-0.41 -0.93,-0.314l-3.119,0.84c-0.427,0.115 -0.696,0.525 -0.648,0.951l0.926,-0.381c0.248,-0.103 0.533,0.016 0.635,0.264l0.37,0.899c0.102,0.249 -0.016,0.533 -0.264,0.635l-1.164,0.479c0.151,0.432 0.614,0.681 1.063,0.56l3.119,-0.84c0.47,-0.127 0.749,-0.611 0.623,-1.081l-0.042,-0.155l-0.167,0.032c-0.262,0.049 -0.514,-0.124 -0.564,-0.386l-0.178,-0.949c-0.047,-0.247 0.104,-0.485 0.34,-0.554Z"/></g></svg>