<?xml version="1.0" encoding="UTF-8" standalone="no"?><!DOCTYPE svg PUBLIC "-//W3C//DTD SVG 1.1//EN" "http://www.w3.org/Graphics/SVG/1.1/DTD/svg11.dtd"><svg width="100%" height="100%" viewBox="0 0 30 30" version="1.1" xmlns="http://www.w3.org/2000/svg" xmlns:xlink="http://www.w3.org/1999/xlink" xml:space="preserve" xmlns:serif="http://www.serif.com/" style="fill-rule:evenodd;clip-rule:evenodd;stroke-linejoin:round;stroke-miterlimit:2;"><g><path d="M4.028,30c0.137,-0.52 0.309,-1.003 0.527,-1.435c1.079,-2.145 3.596,-2.675 5.281,-3.841c1.161,2.003 2.944,2.7 4.942,2.7c2.002,0 3.788,-0.702 4.949,-2.711c1.686,1.163 4.262,1.964 5.343,4.107c0.184,0.365 0.335,0.76 0.459,1.18l-21.501,-0Zm16.047,-7.597c0.019,0.012 -2.095,3.334 -5.298,3.334c-3.656,-0 -5.3,-3.318 -5.274,-3.334c-0.511,-0.754 -0.922,-1.619 -1.205,-2.561c-0.244,-0.898 -0.376,-1.861 -0.376,-2.864c0,-4.834 3.072,-8.301 6.855,-8.301c3.783,-0 6.854,3.467 6.854,8.301c0,1.285 -0.216,2.505 -0.606,3.605c-0.256,0.657 -0.576,1.268 -0.95,1.82Zm-2.085,-9.139l-3.394,3.393l-3.393,-3.393l-0.754,0.754l3.393,3.394l-3.393,3.393l0.754,0.754l3.393,-3.393l3.394,3.393l0.754,-0.754l-3.394,-3.393l3.394,-3.394l-0.754,-0.754Zm-7.448,-10.189c0.076,-0.396 0.293,-1.506 0.404,-1.928c0.046,-0.174 0.101,-0.298 0.141,-0.359c0.049,-0.074 0.103,-0.121 0.15,-0.152c0.1,-0.067 0.42,-0.203 0.671,0.136c0.081,0.109 0.332,0.617 0.511,0.987c0.197,-0.098 0.432,-0.185 0.695,-0.256c1.149,-0.31 2.876,-0.384 3.753,-0.205c1.201,0.245 2.686,1.052 3.191,2.221c0.501,1.162 0.391,2.078 0.007,2.772c-0.565,1.02 -1.777,1.568 -2.702,1.694c-0.968,0.133 -1.75,-0.079 -2.32,-0.346c-0.15,0.034 -0.309,0.061 -0.475,0.082c-0.477,0.058 -1.019,0.068 -1.56,0.044c0.011,0.149 0.008,0.289 -0.015,0.404c-0.051,0.256 -0.3,0.422 -0.556,0.37c-0.255,-0.051 -0.421,-0.299 -0.37,-0.555c0.017,-0.081 0.015,-0.185 0,-0.294c-0.847,-0.097 -1.595,-0.262 -1.968,-0.434c-0.668,-0.307 -1.12,-0.944 -0.954,-1.775c0.027,-0.133 0.226,-0.515 0.688,-0.652c0.799,-0.238 1.423,0.067 1.911,0.547c0.39,0.385 0.68,0.891 0.9,1.197c0.046,0.064 0.091,0.146 0.132,0.242c0.353,0.021 0.712,0.028 1.054,0.016c-0.282,-0.236 -0.549,-0.499 -0.748,-0.789c-0.302,-0.443 -0.452,-0.945 -0.32,-1.511c0.136,-0.586 0.508,-1.047 0.595,-1.126c1.146,-1.048 2.916,-0.666 3.547,0.513c0.398,0.743 0.385,1.847 -0.67,3.117c0.298,0.052 0.632,0.066 1.001,0.016c0.68,-0.094 1.589,-0.467 2.004,-1.217c0.269,-0.486 0.304,-1.127 -0.048,-1.941c-0.392,-0.908 -1.581,-1.48 -2.513,-1.67c-0.776,-0.159 -2.302,-0.083 -3.319,0.191c-0.34,0.092 -0.622,0.18 -0.739,0.328c-0.108,0.138 -0.248,0.194 -0.414,0.18c-0.062,-0.005 -0.24,-0.03 -0.379,-0.237c-0.03,-0.046 -0.088,-0.153 -0.157,-0.289c-0.077,0.374 -0.157,0.749 -0.212,0.956c-0.046,0.175 -0.1,0.299 -0.14,0.359c-0.049,0.074 -0.103,0.122 -0.15,0.153c-0.346,0.231 -0.652,0.199 -0.955,0.092c-0.078,-0.027 -0.155,-0.061 -0.233,-0.089c-0.048,-0.017 -0.098,-0.048 -0.155,-0.009c-0.217,0.144 -0.51,0.085 -0.654,-0.131c-0.145,-0.217 -0.086,-0.51 0.131,-0.655c0.355,-0.237 0.665,-0.207 0.966,-0.104c0.081,0.028 0.16,0.062 0.24,0.092c0.011,0.004 0.022,0.009 0.034,0.015Zm4.615,3.559c0.005,-0.002 0.011,-0.004 0.017,-0.006c0.141,-0.052 0.26,-0.107 0.33,-0.191c0.714,-0.856 0.837,-1.573 0.568,-2.074c-0.367,-0.686 -1.4,-0.873 -2.07,-0.269c-0.013,0.018 -0.251,0.347 -0.321,0.651c-0.067,0.288 0.027,0.539 0.18,0.764c0.202,0.295 0.502,0.548 0.791,0.774c0.099,0.076 0.268,0.212 0.505,0.351Zm-3.574,0.048c-0.141,-0.212 -0.306,-0.441 -0.502,-0.634c-0.252,-0.248 -0.566,-0.438 -0.979,-0.315c-0.015,0.004 -0.03,0.013 -0.044,0.021c-0.02,0.304 0.179,0.527 0.436,0.645c0.229,0.106 0.62,0.206 1.089,0.283Z"/></g></svg>