<?xml version="1.0" encoding="UTF-8" standalone="no"?><!DOCTYPE svg PUBLIC "-//W3C//DTD SVG 1.1//EN" "http://www.w3.org/Graphics/SVG/1.1/DTD/svg11.dtd"><svg width="100%" height="100%" viewBox="0 0 30 30" version="1.1" xmlns="http://www.w3.org/2000/svg" xmlns:xlink="http://www.w3.org/1999/xlink" xml:space="preserve" xmlns:serif="http://www.serif.com/" style="fill-rule:evenodd;clip-rule:evenodd;stroke-linejoin:round;stroke-miterlimit:2;"><g><path d="M1.756,30c0.177,-1.312 0.474,-2.514 0.968,-3.496c1.272,-2.528 4.239,-3.152 6.225,-4.527c1.368,2.361 3.47,3.183 5.826,3.183c2.36,0 4.466,-0.828 5.834,-3.196c1.987,1.371 5.023,2.315 6.298,4.841c0.466,0.924 0.753,2.014 0.926,3.195l-26.077,0Zm19.263,-10.759c0.023,0.014 -2.47,3.93 -6.246,3.93c-4.309,-0 -6.247,-3.911 -6.217,-3.93c-0.602,-0.888 -1.086,-1.908 -1.42,-3.019c-0.287,-1.058 -0.443,-2.194 -0.443,-3.375c0,-5.699 3.621,-9.786 8.08,-9.786c4.46,-0 8.08,4.087 8.08,9.786c0,1.514 -0.255,2.952 -0.714,4.248c-0.302,0.776 -0.679,1.496 -1.12,2.146Zm-9.792,-7.248c0.061,0.067 -0.053,0.093 -0.173,0.088c-0.365,-0.018 -0.771,-0.511 -0.469,-1.027c0.07,-0.12 0.351,-0.339 0.81,-0.347c0.77,-0.014 1.252,0.389 1.538,0.847c0.136,0.218 0.154,0.566 0.102,0.91c-0.053,0.358 -0.187,0.719 -0.415,0.938c-0.388,0.376 -1.126,0.654 -1.97,0.557c-0.379,-0.043 -1.103,-0.47 -1.442,-0.958c-0.578,-0.83 -0.67,-1.568 -0.111,-2.661c0.205,-0.399 0.62,-0.687 1.093,-0.882c0.754,-0.309 1.667,-0.38 2.263,-0.162c0.203,0.074 0.428,-0.031 0.502,-0.234c0.075,-0.203 -0.03,-0.428 -0.233,-0.503c-0.744,-0.271 -1.888,-0.213 -2.829,0.174c-0.657,0.27 -1.21,0.697 -1.493,1.25c-0.729,1.424 -0.589,2.384 0.165,3.466c0.466,0.669 1.476,1.23 1.996,1.289c1.119,0.129 2.088,-0.274 2.604,-0.772c0.339,-0.327 0.566,-0.853 0.646,-1.386c0.081,-0.548 0.003,-1.095 -0.213,-1.441c-0.412,-0.66 -1.108,-1.235 -2.216,-1.216c-0.858,0.015 -1.342,0.511 -1.473,0.735c-0.66,1.129 0.31,2.167 1.107,2.205c0.462,0.023 0.767,-0.191 0.912,-0.444c0.166,-0.29 0.146,-0.663 -0.125,-0.957c-0.147,-0.159 -0.395,-0.169 -0.554,-0.023c-0.159,0.147 -0.169,0.395 -0.022,0.554Zm7.093,-0.832c-0.062,-0.067 0.052,-0.094 0.173,-0.088c0.364,0.018 0.77,0.51 0.468,1.027c-0.07,0.12 -0.35,0.339 -0.81,0.347c-0.769,0.013 -1.251,-0.389 -1.537,-0.848c-0.103,-0.165 -0.125,-0.407 -0.105,-0.662c0.034,-0.426 0.199,-0.893 0.477,-1.162c0.387,-0.374 1.07,-0.677 1.911,-0.581c0.378,0.044 1.103,0.471 1.442,0.958c0.578,0.831 0.67,1.569 0.11,2.662c-0.204,0.399 -0.619,0.687 -1.093,0.882c-0.753,0.309 -1.667,0.38 -2.262,0.162c-0.203,-0.074 -0.428,0.031 -0.503,0.234c-0.074,0.203 0.031,0.428 0.234,0.502c0.744,0.272 1.888,0.213 2.829,-0.173c0.657,-0.27 1.21,-0.697 1.493,-1.25c0.729,-1.424 0.588,-2.384 -0.165,-3.466c-0.466,-0.669 -1.476,-1.23 -1.996,-1.289c-1.122,-0.129 -2.028,0.296 -2.545,0.796c-0.401,0.387 -0.665,1.049 -0.713,1.664c-0.035,0.44 0.043,0.853 0.221,1.138c0.412,0.661 1.108,1.236 2.216,1.217c0.858,-0.015 1.342,-0.511 1.473,-0.736c0.66,-1.129 -0.31,-2.166 -1.108,-2.205c-0.461,-0.022 -0.766,0.191 -0.911,0.445c-0.166,0.29 -0.147,0.663 0.125,0.957c0.147,0.159 0.395,0.169 0.554,0.022c0.159,-0.146 0.169,-0.395 0.022,-0.553Zm-0.22,5.424c-0.992,-0.958 -5.531,-1.059 -6.839,0c-0.359,0.291 -0,1.305 -0,1.305c2.295,-0.76 4.575,-0.76 6.839,-0c-0,-0 0.329,-0.986 -0,-1.305Z"/></g></svg>