<?xml version="1.0" encoding="UTF-8" standalone="no"?><!DOCTYPE svg PUBLIC "-//W3C//DTD SVG 1.1//EN" "http://www.w3.org/Graphics/SVG/1.1/DTD/svg11.dtd"><svg width="100%" height="100%" viewBox="0 0 30 30" version="1.1" xmlns="http://www.w3.org/2000/svg" xmlns:xlink="http://www.w3.org/1999/xlink" xml:space="preserve" xmlns:serif="http://www.serif.com/" style="fill-rule:evenodd;clip-rule:evenodd;stroke-linejoin:round;stroke-miterlimit:2;"><g><path d="M1.329,30c0.186,-1.294 0.488,-2.478 0.976,-3.449c0.105,-0.208 0.22,-0.404 0.343,-0.591c0.465,0.38 0.968,0.792 1.424,1.146c-0.051,0.084 -0.099,0.171 -0.145,0.261c-0.38,0.757 -0.632,1.654 -0.796,2.633l-1.802,0Zm25.121,0c-0.16,-0.856 -0.398,-1.648 -0.747,-2.341c-0.08,-0.158 -0.169,-0.309 -0.264,-0.453c0.428,-0.382 0.873,-0.754 1.358,-1.223c0.196,0.267 0.373,0.553 0.527,0.858c0.462,0.915 0.753,1.992 0.934,3.159l-1.808,0Zm-21.735,-6.014c0.231,-0.15 0.468,-0.292 0.71,-0.427c0.855,-0.48 1.764,-0.872 2.571,-1.334c-0.032,0.775 -0.067,1.762 -0.038,2.068c-0.545,0.275 -1.105,0.547 -1.646,0.849c-0.134,0.076 -0.267,0.153 -0.398,0.233c-0.375,-0.442 -0.777,-0.916 -1.199,-1.389Zm18.97,1.557c-0.144,-0.097 -0.29,-0.191 -0.438,-0.282c-0.478,-0.297 -0.972,-0.569 -1.456,-0.834c0.016,-0.681 0.034,-1.363 0.043,-2.048c0.715,0.411 1.497,0.808 2.247,1.263c-0.101,0.616 -0.248,1.324 -0.396,1.901Zm-0.379,-10.327c-0.126,0.737 -0.312,1.447 -0.55,2.119c-0.004,0.009 -0.007,0.018 -0.01,0.027c-0.317,0.812 -0.712,1.567 -1.174,2.248c-0.018,0.035 -0.038,0.069 -0.061,0.104c-0.457,0.701 -3.045,4.104 -6.737,4.104c-3.004,0 -4.959,-1.728 -5.979,-2.996c0.018,-0.013 0.036,-0.025 0.055,-0.037c0.193,-0.121 0.864,-0.512 1.53,-0.88c0.812,0.942 2.253,2.097 4.394,2.097c2.884,0 4.86,-2.733 5.217,-3.281c0.005,-0.008 0.011,-0.017 0.016,-0.025c0.017,-0.034 0.037,-0.067 0.058,-0.098c0.387,-0.571 0.718,-1.202 0.984,-1.882c0.207,-0.586 0.366,-1.204 0.474,-1.846c0.587,0.086 1.384,0.23 1.783,0.346Zm-19.031,2.878l0.648,1.752l1.752,0.649l-1.752,0.648l-0.648,1.752l-0.648,-1.752l-1.752,-0.648l1.752,-0.649l0.648,-1.752Zm20.411,0.846l0.403,1.091l1.091,0.403l-1.091,0.404l-0.403,1.091l-0.404,-1.091l-1.091,-0.404l1.091,-0.403l0.404,-1.091Zm0.705,-17.248l0.917,2.48l2.48,0.917l-2.48,0.917l-0.917,2.48l-0.917,-2.48l-2.48,-0.917l2.48,-0.917l0.917,-2.48Zm-3.721,11.799c0.009,-0.188 0.014,-0.378 0.014,-0.57c-0,-4.002 -1.999,-7.138 -4.814,-8.184c0.047,-0.167 0.325,-1.392 0.373,-1.791c3.589,1.197 6.256,4.981 6.256,9.975c0,0.171 -0.003,0.34 -0.009,0.508c-0.927,0.018 -1.778,0.038 -1.788,0.044c-0.01,0.007 -0.021,0.013 -0.032,0.018Zm-13.099,-4.459c-0.453,1.15 -0.707,2.465 -0.707,3.889c0,1.056 0.139,2.071 0.394,3.017c0.286,0.948 0.695,1.822 1.203,2.587c-0.513,0.226 -1.245,0.488 -1.701,0.71c-0.519,-0.839 -0.941,-1.776 -1.245,-2.786c-0.002,-0.008 -0.004,-0.016 -0.007,-0.024c-0.297,-1.098 -0.459,-2.277 -0.459,-3.504c-0,-1.755 0.329,-3.361 0.913,-4.758c0.422,0.209 1.385,0.784 1.609,0.869Zm5.038,-4.558c-1.66,0.326 -3.106,1.343 -4.131,2.839c-0.468,-0.31 -1.055,-0.714 -1.521,-0.993c1.328,-1.948 3.245,-3.252 5.413,-3.648c0.045,0.449 0.223,1.576 0.239,1.802Z"/></g></svg>