<?xml version="1.0" encoding="UTF-8" standalone="no"?><!DOCTYPE svg PUBLIC "-//W3C//DTD SVG 1.1//EN" "http://www.w3.org/Graphics/SVG/1.1/DTD/svg11.dtd"><svg width="100%" height="100%" viewBox="0 0 30 30" version="1.1" xmlns="http://www.w3.org/2000/svg" xmlns:xlink="http://www.w3.org/1999/xlink" xml:space="preserve" xmlns:serif="http://www.serif.com/" style="fill-rule:evenodd;clip-rule:evenodd;stroke-linejoin:round;stroke-miterlimit:2;"><g><path d="M0,19.235l1.416,0.681c0.263,0.127 0.466,0.339 0.599,0.604c0.125,0.245 0.19,0.536 0.19,0.844c-0.001,0.331 -0.076,0.682 -0.235,1.02l-0.095,0.201l-1.585,-0.82c-0.034,-0.221 -0.133,-0.415 -0.29,-0.541l0,-1.989Zm0,6.807l0.196,0.102c-0.059,0.105 -0.125,0.204 -0.196,0.296l0,-0.398Zm0,-3.597l4,2.07l-0.203,2.358c-0.004,0.055 -0.006,0.11 -0.004,0.163c-0.105,0.033 -0.214,0.028 -0.31,-0.022l-3.483,-1.803l0,-2.766Zm2.185,7.555c-0.679,-0.499 -1.09,-1.329 -1.012,-2.23l0.092,-1.073l1.879,0.972c0.261,0.135 0.572,0.156 0.866,0.067c0.224,0.349 0.601,0.594 1.045,0.632l5.041,0.432c0.365,0.032 0.709,-0.082 0.976,-0.294l2.994,-0.125l-0.042,0.493c-0.036,0.415 -0.171,0.797 -0.381,1.126l-11.458,0Zm12.296,0c0.109,-0.239 0.189,-0.494 0.238,-0.762c0.037,0.113 0.081,0.222 0.131,0.329l-0,0.433l-0.369,0Zm1.571,-0c-0.444,-0.424 -0.73,-1.013 -0.758,-1.67l3.041,-0.128c0.229,0.165 0.512,0.259 0.815,0.253l4.974,-0.096c0.634,-0.012 1.158,-0.457 1.297,-1.048c0.399,0.476 1.034,0.601 1.502,0.358l1.032,-0.534l0.017,0.891c0.016,0.797 -0.351,1.514 -0.931,1.974l-10.989,-0Zm13.948,-3.652c-0.046,-0.065 -0.089,-0.133 -0.129,-0.204l0.129,-0.067l-0,0.271Zm-0,-1.102l-3.416,1.768c-0.235,0.122 -0.548,-0.026 -0.697,-0.33l-0.455,-0.924l-0.01,-0.542l-0.006,0.003c-0.009,-0.168 -0.012,-0.962 -0.012,-0.962c-0.002,-0.075 -0.009,-0.148 -0.022,-0.219c-0.118,-0.643 -0.688,-1.126 -1.363,-1.113l-1.407,0.027l-3.566,0.069c-0.491,0.01 -0.915,0.278 -1.147,0.673l-2.693,0.112l-0.009,-0.452c-0.026,-1.356 1.054,-2.478 2.41,-2.505l3.892,-0.075l3.658,-0.07l0.216,-0.004c0.681,-0.013 1.303,0.253 1.757,0.692c0.002,0.425 0.097,0.871 0.3,1.304l0.107,0.227l-1.048,0.542l0.321,0.665l3.19,-1.652l-0,2.766Zm-0,-3.96c-0.118,0.124 -0.194,0.291 -0.223,0.479l-1.585,0.82l-0.094,-0.201c-0.199,-0.423 -0.268,-0.868 -0.221,-1.267c0.063,-0.535 0.333,-0.988 0.775,-1.201l1.348,-0.649l-0,2.019Zm-0,-2.838l-0.883,0.426l-2.3,-1.107c-0.485,-0.234 -0.667,-0.891 -0.447,-1.522c0.019,-0.056 0.042,-0.112 0.068,-0.167l1.154,-2.457c0.088,-0.188 0.204,-0.35 0.338,-0.48c0.348,-0.343 0.813,-0.472 1.195,-0.288l0.875,0.421l-0,1.348l-0.848,-0.408c-0.032,-0.016 -0.064,-0.027 -0.098,-0.035c-0.266,-0.061 -0.574,0.115 -0.736,0.431c-0.004,0.009 -0.009,0.019 -0.013,0.028l-0.638,1.358c-0.045,0.096 -0.072,0.195 -0.083,0.291c-0.032,0.279 0.076,0.538 0.293,0.642l1.244,0.599c0.097,0.159 0.231,0.289 0.389,0.371l0.49,0.253l-0,0.296Zm-30,-4.778l1.697,-0.817c0.401,-0.193 0.894,-0.041 1.247,0.341c0.112,0.121 0.209,0.264 0.286,0.427l1.154,2.457c0.037,0.08 0.068,0.161 0.092,0.242c0.181,0.607 -0.006,1.223 -0.471,1.447l-2.677,1.288l-1.166,-0.561l1.15,-0.595c0.158,-0.082 0.292,-0.212 0.389,-0.371l1.244,-0.599c0.202,-0.097 0.309,-0.327 0.298,-0.584c-0.005,-0.114 -0.034,-0.234 -0.088,-0.349l-0.638,-1.358c-0.004,-0.009 -0.008,-0.018 -0.013,-0.026c-0.158,-0.313 -0.46,-0.488 -0.724,-0.435c-0.038,0.007 -0.075,0.019 -0.11,0.037l-1.67,0.803l-0,-1.347Zm-0,2.184l0.231,-0.12c0.161,-0.083 0.375,0.018 0.477,0.227l0.371,0.754c0.044,0.089 0.06,0.184 0.052,0.269c-0.011,0.114 -0.066,0.212 -0.159,0.259l-0.972,0.504l-0,-1.893Zm30,1.467l-0.151,-0.078c-0.092,-0.047 -0.147,-0.145 -0.158,-0.259c-0.008,-0.085 0.008,-0.18 0.052,-0.269l0.257,-0.523l-0,1.129Zm-27.12,3.496c0.42,-0.233 0.911,-0.348 1.424,-0.304l7.871,0.676c1.356,0.116 2.368,1.298 2.28,2.651l-2.822,0.118c-0.221,-0.365 -0.607,-0.623 -1.065,-0.663l-5.04,-0.432c-0.628,-0.054 -1.195,0.322 -1.409,0.883l-1.588,-0.821l0.107,-0.227c0.298,-0.636 0.363,-1.298 0.242,-1.881Zm23.019,-5.327l-2.1,-0.828c-0.181,-0.058 -0.326,-0.2 -0.323,-0.432l0.012,-0.84c0.003,-0.232 0.153,-0.415 0.334,-0.409l2.855,0.854l-0.778,1.655Zm-1.208,10.074l-0.598,0.286l-1.107,-2.165l1.048,-0.02c0.342,-0.007 0.625,0.266 0.632,0.608l0.025,1.291Zm-19.73,-9.992l-0.782,-1.665l2.577,-0.828c0.181,-0.004 0.328,0.181 0.328,0.413l0,0.841c0,0.232 -0.12,0.348 -0.328,0.427l-1.795,0.812Zm-0.178,8.518c0.073,-0.305 0.36,-0.52 0.682,-0.492l1.934,0.166l-0.938,1.931l-0.925,-0.38c0.017,-0.502 -0.238,-0.959 -0.63,-1.161l-0.123,-0.064Zm0.748,-4.212c0.367,-0.921 1.807,-3.537 2.581,-5.074c0.745,-1.481 2.481,-1.846 3.644,-2.651c0.801,1.382 2.032,1.864 3.411,1.864c1.382,-0 2.614,-0.485 3.415,-1.871c1.164,0.802 2.941,1.355 3.687,2.834c0.825,1.633 2.341,4.281 2.575,4.994l-3.719,0.072l-0.996,-1.949l-0.42,0.506l-0.018,1.47l-2.098,0.041c-1.279,0.024 -2.369,0.799 -2.859,1.896c-0.517,-0.857 -1.423,-1.464 -2.496,-1.556l-1.572,-0.135l0,-1.571l-0.572,-0.538l-0.96,1.977l-3.603,-0.309Zm13.291,-9.327c0.014,0.009 -1.446,2.301 -3.656,2.301c-2.523,0 -3.657,-2.29 -3.64,-2.301c-0.352,-0.52 -0.636,-1.116 -0.831,-1.767c-0.168,-0.619 -0.259,-1.284 -0.259,-1.976c-0,-3.336 2.119,-5.729 4.73,-5.729c2.611,-0 4.73,2.393 4.73,5.729c0,0.886 -0.149,1.728 -0.418,2.487c-0.177,0.454 -0.398,0.876 -0.656,1.256Zm0.71,13.814c0.42,-0.017 0.775,0.309 0.792,0.729l0.064,1.522c0.018,0.42 -0.309,0.775 -0.729,0.792l-9.668,0.405c-0.42,0.018 -0.775,-0.309 -0.793,-0.729l-0.063,-1.521c-0.018,-0.42 0.309,-0.775 0.728,-0.793l9.669,-0.405Z"/></g></svg>