<?xml version="1.0" encoding="UTF-8" standalone="no"?><!DOCTYPE svg PUBLIC "-//W3C//DTD SVG 1.1//EN" "http://www.w3.org/Graphics/SVG/1.1/DTD/svg11.dtd"><svg width="100%" height="100%" viewBox="0 0 30 30" version="1.1" xmlns="http://www.w3.org/2000/svg" xmlns:xlink="http://www.w3.org/1999/xlink" xml:space="preserve" xmlns:serif="http://www.serif.com/" style="fill-rule:evenodd;clip-rule:evenodd;stroke-linejoin:round;stroke-miterlimit:2;"><g><path d="M1.677,30c0.161,-1.572 0.47,-3.019 1.047,-4.166c1.272,-2.528 4.239,-3.152 6.225,-4.527c0.409,0.706 0.884,1.275 1.412,1.725c-0.828,0.792 -2.593,1.583 -2.718,1.834c-0.056,0.112 1.539,2.659 1.539,2.659c0,0 -0.042,-0.36 -0.092,-0.814c-0.01,-0.093 4.724,0.24 4.713,0.141c-0.01,-0.094 -4.765,-0.618 -4.775,-0.713c-0.065,-0.62 -0.122,-1.217 -0.099,-1.24c0.207,-0.207 1.344,-0.782 2.327,-1.241c1.048,0.592 2.247,0.833 3.519,0.833c2.36,-0 4.466,-0.828 5.834,-3.197c1.987,1.371 5.023,2.315 6.298,4.841c0.268,0.531 0.476,1.116 0.638,1.742c-0.891,-0.265 -3.513,-0.917 -3.677,-0.999c-0.012,-0.006 -0.462,-1.551 -0.56,-1.649c-0.092,-0.091 -3.706,0.351 -3.694,0.363c0.173,0.173 3.273,0.214 3.298,0.264c0.2,0.4 0.552,1.589 0.795,1.869c0.062,0.07 3.677,0.705 3.971,0.725c0.103,0.497 0.181,1.016 0.24,1.55l-26.241,-0Zm16.756,-25.933c0.183,0.107 0.361,0.223 0.535,0.347c2.329,1.653 3.885,4.697 3.885,8.433c0,1.514 -0.255,2.952 -0.714,4.248c-0.302,0.776 -0.679,1.496 -1.12,2.146c0.017,0.011 -1.346,2.161 -3.588,3.276c-0.481,-0.388 -2.112,-1.506 -2.17,-1.623c-0.077,-0.154 1.677,-2.195 1.9,-2.656c-0.383,0.439 -2.501,2.319 -2.787,2.606c-0.01,0.01 0.315,0.315 0.532,0.532c0.378,0.377 1.1,1.021 1.539,1.538c-0.523,0.161 -1.082,0.257 -1.672,0.257c-4.309,-0 -6.247,-3.911 -6.217,-3.93c-0.602,-0.888 -1.086,-1.908 -1.42,-3.019c-0.257,-0.949 -0.409,-1.961 -0.438,-3.013l3.11,-1.231l0.023,0.036c-0.029,0.176 -0.045,0.359 -0.045,0.548c0,1.242 0.665,2.25 1.484,2.25c0.081,-0 0.16,-0.01 0.238,-0.029l0.248,0.41l2.431,-0.048l1.757,1.681l-1.55,-2.361l-2.393,0.011c0.81,-0.369 0.753,-1.731 0.753,-1.914c-0,-1.242 -0.665,-2.25 -1.484,-2.25c-0.268,0 -0.52,0.109 -0.738,0.298l-0.809,0.654l-2.317,0.856l2.747,-4.584l-3.341,3.556c0.658,-4.764 3.975,-8.031 7.961,-8.031c0.602,-0 1.188,0.074 1.753,0.217l0.002,0.001l-0.004,0.006l-1.396,2.494l4.182,2.842l-2.299,1.698l-2.746,-1.831l2.559,2.752c-0.178,0.371 -0.284,0.828 -0.284,1.322c0,1.242 0.665,2.25 1.484,2.25c0.357,-0 0.686,-0.192 0.942,-0.512l0.083,-0.112c0.283,-0.41 0.459,-0.987 0.459,-1.626c0,-1.177 -0.597,-2.143 -1.357,-2.241l1.727,-1.346l2.418,1.421l-2.082,-1.777l-3.57,-3.081l1.785,-1.469l0.002,-0.004l0.002,0.002Z"/></g></svg>