<?xml version="1.0" encoding="UTF-8" standalone="no"?><!DOCTYPE svg PUBLIC "-//W3C//DTD SVG 1.1//EN" "http://www.w3.org/Graphics/SVG/1.1/DTD/svg11.dtd"><svg width="100%" height="100%" viewBox="0 0 30 30" version="1.1" xmlns="http://www.w3.org/2000/svg" xmlns:xlink="http://www.w3.org/1999/xlink" xml:space="preserve" xmlns:serif="http://www.serif.com/" style="fill-rule:evenodd;clip-rule:evenodd;stroke-linejoin:round;stroke-miterlimit:2;"><g><path d="M2.853,-0c0.359,0.563 0.567,1.232 0.567,1.949c-0,0.348 -0.05,0.685 -0.141,1.005c0.68,0.428 1.132,1.186 1.132,2.048c0,1.336 -1.084,2.42 -2.42,2.42c-0.148,0 -0.293,-0.013 -0.433,-0.039c-0.31,0.618 -0.876,1.085 -1.558,1.261l0,-8.644l2.853,-0Zm27.147,14.935c-0.401,0.594 -1.08,0.985 -1.85,0.985c-1.231,-0 -2.23,-1 -2.23,-2.231c-0,-0.033 0,-0.066 0.002,-0.099c-1.386,-0.182 -2.457,-1.369 -2.457,-2.805c-0,-1.561 1.267,-2.829 2.829,-2.829c0.079,-0 0.158,0.003 0.236,0.01c0.099,-1.315 1.198,-2.352 2.538,-2.352c0.329,0 0.643,0.063 0.932,0.177l0,4.738c-0.273,0.107 -0.569,0.169 -0.878,0.176c0.001,0.026 0.001,0.053 0.001,0.08c0,0.292 -0.044,0.575 -0.127,0.84c0.41,0.168 0.759,0.455 1.004,0.818l-0,2.492Zm-25.385,-4.52c-0.234,0.18 -0.527,0.287 -0.845,0.287c-0.767,0 -1.389,-0.622 -1.389,-1.388c0,-0.703 0.524,-1.285 1.203,-1.376c0.139,-0.62 0.693,-1.084 1.355,-1.084c0.766,-0 1.388,0.622 1.388,1.388c0,0.482 -0.245,0.906 -0.618,1.155c0.34,0.112 0.586,0.433 0.586,0.81c-0,0.471 -0.382,0.853 -0.853,0.853c-0.399,-0 -0.734,-0.275 -0.827,-0.645Zm13.047,0.11c3.784,1.379 6.514,5.271 6.514,9.852c-0,2.997 -1.169,5.699 -3.036,7.595c-4.533,1.779 -8.87,1.788 -13.007,0c-1.867,-1.896 -3.036,-4.598 -3.036,-7.595c0,-4.581 2.73,-8.473 6.514,-9.852l-0,-1.774l-1.538,-0l-0,-3.869l9.127,-0l-0,3.869l-1.538,-0l0,1.774Zm-3.173,16.181l0,0.01l0.616,0l0,-0.011c0.088,-0.002 0.184,0.006 0.246,0.006c0.525,0.002 1.049,-0.022 1.572,-0.071c0.372,-0.035 0.535,-0.092 0.878,-0.247c0.099,-0.045 0.161,-0.106 0.175,-0.22c0.163,-1.368 0.565,-2.736 0.725,-4.103c0.109,-0.926 1.483,-0.482 1.48,-1.496c-0.001,-0.512 -0.051,-1.071 -0.149,-1.677c-0.388,-2.378 -1.585,-4.772 -4.182,-5.273c-0.233,-0.046 -0.499,-0.076 -0.797,-0.093c-0.006,-0 -0.011,0.004 -0.012,0.01l-0.498,0.006l-0,-0.006c-0.001,-0.006 -0.006,-0.01 -0.012,-0.01c-0.298,0.017 -0.564,0.047 -0.797,0.093c-2.597,0.501 -3.794,2.895 -4.182,5.273c-0.098,0.606 -0.148,1.165 -0.149,1.677c-0.003,1.014 1.371,0.57 1.48,1.496c0.16,1.367 0.53,2.781 0.693,4.149c0.014,0.114 0.076,0.175 0.175,0.22c0.342,0.155 0.538,0.166 0.91,0.201c0.523,0.049 1.047,0.073 1.572,0.071c0.064,-0 0.165,-0.009 0.256,-0.005Zm-2.759,-5.056c-0.664,-0.402 -0.864,-1.341 -0.849,-2.042c0.005,-0.213 0.631,-0.305 0.784,-0.322c0.539,-0.061 1.252,0.388 1.827,0.506c0.143,0.029 0.483,0.112 0.526,0.272c0.147,0.546 0.183,0.865 -0.262,1.314c-0.079,0.081 -0.188,0.153 -0.328,0.217c-0.51,0.237 -1.195,0.36 -1.698,0.055Zm3.375,3.871l0,-0.705l-0.616,0l0,0.705l-0.427,-0c-0.006,-0 -0.012,-0.005 -0.012,-0.012l0.001,-0.69c-0,-0.005 -0.005,-0.009 -0.011,-0.009l-0.413,0c-0.006,0 -0.011,0.004 -0.011,0.009l0.001,0.69c-0,0.007 -0.006,0.012 -0.012,0.012l-0.528,-0c-0.006,-0 -0.011,-0.005 -0.011,-0.012l0.001,-0.687c-0,-0.006 -0.006,-0.011 -0.012,-0.011l-0.406,0.001c-0.006,-0 -0.011,0.005 -0.011,0.012l-0,0.685c-0,0.007 -0.006,0.012 -0.012,0.012l-0.533,-0c-0.007,-0 -0.012,-0.005 -0.012,-0.012l0.001,-0.687c-0,-0.006 -0.005,-0.011 -0.011,-0.011l-0.5,0.001c-0.006,-0 -0.012,-0.006 -0.012,-0.012l0,-0.533c0,-0.007 0.006,-0.012 0.012,-0.012l0.498,-0c0.007,-0 0.012,-0.005 0.012,-0.012l-0,-0.68c-0,-0.006 0.005,-0.011 0.012,-0.011l0.533,-0c0.006,-0 0.012,0.005 0.012,0.011l-0,0.68c-0,0.007 0.005,0.012 0.011,0.012l0.405,-0c0.006,-0 0.012,-0.005 0.012,-0.012l-0,-0.68c-0,-0.006 0.005,-0.011 0.011,-0.011l0.528,-0c0.006,-0 0.012,0.005 0.012,0.011l-0,0.68c-0,0.007 0.005,0.012 0.011,0.012l0.411,-0c0.006,-0 0.011,-0.005 0.011,-0.012l0,-0.68c0,-0.006 0.006,-0.011 0.012,-0.011l0.427,-0l0,0.713l0.616,-0l0,-0.712l0.157,0.001l-0,-0.002l0.26,-0c0.007,-0 0.012,0.005 0.012,0.011l-0,0.68c-0,0.007 0.005,0.012 0.011,0.012l0.411,-0c0.006,-0 0.011,-0.005 0.011,-0.012l0,-0.68c0,-0.006 0.006,-0.011 0.012,-0.011l0.528,-0c0.006,-0 0.011,0.005 0.011,0.011l0,0.68c0,0.007 0.006,0.012 0.012,0.012l0.405,-0c0.006,-0 0.011,-0.005 0.011,-0.012l0,-0.68c0,-0.006 0.006,-0.011 0.012,-0.011l0.533,-0c0.007,-0 0.012,0.005 0.012,0.011l0,0.68c0,0.007 0.005,0.012 0.012,0.012l0.498,-0c0.006,-0 0.012,0.005 0.012,0.012l-0,0.533c-0,0.006 -0.006,0.012 -0.012,0.012l-0.5,-0.001c-0.006,-0 -0.011,0.005 -0.011,0.011l0.001,0.687c-0,0.007 -0.005,0.012 -0.012,0.012l-0.533,-0c-0.006,-0 -0.012,-0.005 -0.012,-0.012l0,-0.685c0,-0.007 -0.005,-0.012 -0.011,-0.012l-0.406,-0.001c-0.006,-0 -0.011,0.005 -0.011,0.011l0,0.687c0,0.007 -0.005,0.012 -0.011,0.012l-0.528,-0c-0.006,-0 -0.012,-0.005 -0.012,-0.012l0.001,-0.69c-0,-0.005 -0.005,-0.009 -0.011,-0.009l-0.413,0c-0.006,0 -0.011,0.004 -0.011,0.009l0.001,0.69c-0,0.007 -0.005,0.012 -0.012,0.012l-0.417,-0Zm0.656,-2.678l-0.951,-0.333c0,-0 -0.934,0.34 -0.928,0.331c-0,-0 0.964,-1.584 0.964,-1.589c0,0 0.925,1.593 0.915,1.591Zm2.093,-1.193c-0.503,0.305 -1.188,0.182 -1.698,-0.055c-0.139,-0.064 -0.249,-0.136 -0.328,-0.217c-0.445,-0.449 -0.286,-0.768 -0.14,-1.314c0.044,-0.16 0.383,-0.243 0.526,-0.272c0.576,-0.118 1.166,-0.567 1.705,-0.506c0.153,0.017 0.779,0.109 0.784,0.322c0.016,0.701 -0.184,1.64 -0.849,2.042Zm9.7,-19.789c0.891,-0 1.614,0.722 1.614,1.613c-0,0.89 -0.723,1.613 -1.614,1.613c-0.89,0 -1.613,-0.723 -1.613,-1.613c-0,-0.891 0.723,-1.613 1.613,-1.613Zm-25.071,10.765c0.891,0 1.614,0.723 1.614,1.614c-0,0.89 -0.723,1.613 -1.614,1.613c-0.89,0 -1.613,-0.723 -1.613,-1.613c-0,-0.891 0.723,-1.614 1.613,-1.614Zm5.682,-11.46c0.543,0 0.985,0.442 0.985,0.985c-0,0.544 -0.442,0.985 -0.985,0.985c-0.544,0 -0.985,-0.441 -0.985,-0.985c-0,-0.543 0.441,-0.985 0.985,-0.985Zm9.376,-0.349l-0.629,3.261l-4.591,-0l-0.589,-3.261l5.809,0Zm4.967,0.191c0.942,-0 1.706,0.764 1.706,1.706c0,0.941 -0.764,1.706 -1.706,1.706c-0.941,-0 -1.705,-0.765 -1.705,-1.706c-0,-0.942 0.764,-1.706 1.705,-1.706Zm-20.41,20.059c0.544,-0 0.985,0.441 0.985,0.985c0,0.543 -0.441,0.985 -0.985,0.985c-0.544,-0 -0.985,-0.442 -0.985,-0.985c0,-0.544 0.441,-0.985 0.985,-0.985Zm25.197,0.45c0.89,0 1.613,0.723 1.613,1.614c0,0.89 -0.723,1.613 -1.613,1.613c-0.891,0 -1.614,-0.723 -1.614,-1.613c0,-0.891 0.723,-1.614 1.614,-1.614Z"/></g></svg>