<?xml version="1.0" encoding="UTF-8" standalone="no"?>
<!DOCTYPE svg PUBLIC "-//W3C//DTD SVG 1.1//EN" "http://www.w3.org/Graphics/SVG/1.1/DTD/svg11.dtd">
<svg width="100%" height="100%" viewBox="0 0 30 30" version="1.1" xmlns="http://www.w3.org/2000/svg" xmlns:xlink="http://www.w3.org/1999/xlink" xml:space="preserve" xmlns:serif="http://www.serif.com/" style="fill-rule:evenodd;clip-rule:evenodd;stroke-linejoin:round;stroke-miterlimit:2;">
    <g transform="matrix(0.0599809,0,0,0.0599809,0,0)">
        <g transform="matrix(0.980464,0.529214,-0.500079,0.926486,101.142,-33.959)">
            <ellipse cx="117.052" cy="242.922" rx="51.831" ry="46.799"/>
        </g>
        <g transform="matrix(0.259676,0,0,0.259676,-20.2344,-9.9338)">
            <path d="M1220.59,1313.27C1212.54,1306.39 1170.23,1283.54 1102.12,1278.35C949.141,1266.68 856.229,1277.18 856.229,1277.18L678.621,1528.54L487.588,1816.34L268.289,1816.34L472.511,1526.02L650.119,1206.8C775.797,1040.91 677.767,930.314 677.767,930.314C956.772,867.472 1251.28,885.383 1475.09,1086.07C1598.68,1267.92 1420.87,1645.95 1420.87,1645.95L1682.24,1645.95L1750.1,1583.12L1903.43,1815.62L1163.19,1815.62C1163.19,1815.62 1128.46,1810.64 1147.88,1738.81C1160.09,1693.66 1245.89,1379.71 1238.18,1364.3C1236.86,1361.66 1244.97,1334.14 1220.59,1313.27Z"/>
        </g>
        <g transform="matrix(0.259676,0,0,0.259676,-20.2344,-9.9338)">
            <path d="M1190.68,1373.98C1183.57,1389.68 1100.72,1645.95 1100.72,1645.95L1127.85,1645.95C1122.81,1652.55 1046.05,1808.46 1041.3,1815.62L843.036,1815.62C843.036,1815.62 790.707,1803.36 827.735,1738.81C862.814,1677.67 1006.53,1360.32 1023.1,1327.56C1052.36,1299.54 1214,1322.44 1190.68,1373.98Z"/>
        </g>
        <g transform="matrix(1.46957e-17,0.24,-0.24,1.46957e-17,188.766,-179.558)">
            <path d="M923.212,299.066L923.212,94.645L1285.33,94.645L1285.33,-13.805L1452.18,197.715L1285.33,407.516L1285.33,299.066L923.212,299.066Z"/>
        </g>
        <g transform="matrix(1.46957e-17,0.24,-0.24,1.46957e-17,320.956,-179.558)">
            <path d="M923.212,299.066L923.212,94.645L1384.56,94.645L1384.56,-13.805L1551.4,197.715L1384.56,407.516L1384.56,299.066L923.212,299.066Z"/>
        </g>
        <g transform="matrix(1.46957e-17,0.24,-0.24,1.46957e-17,453.146,-179.558)">
            <path d="M923.212,299.066L923.212,94.645L1595.47,94.645L1595.47,-13.805L1762.31,197.715L1595.47,407.516L1595.47,299.066L923.212,299.066Z"/>
        </g>
    </g>
</svg>
