<?xml version="1.0" encoding="UTF-8" standalone="no"?><!DOCTYPE svg PUBLIC "-//W3C//DTD SVG 1.1//EN" "http://www.w3.org/Graphics/SVG/1.1/DTD/svg11.dtd"><svg width="100%" height="100%" viewBox="0 0 30 30" version="1.1" xmlns="http://www.w3.org/2000/svg" xmlns:xlink="http://www.w3.org/1999/xlink" xml:space="preserve" xmlns:serif="http://www.serif.com/" style="fill-rule:evenodd;clip-rule:evenodd;stroke-linejoin:round;stroke-miterlimit:2;"><g><path d="M12.517,17.311l0.011,0.159c0.032,0.436 -0.347,0.631 -0.731,0.847c-2.629,1.483 -5.432,1.8 -8.458,0.62c-0.503,-0.197 -0.815,-0.296 -0.847,-0.732l-0.115,-1.578c-0.032,-0.436 0.296,-0.815 0.731,-0.847c2.58,0.989 5.368,0.94 8.458,-0.619c0.435,-0.032 0.815,0.296 0.847,0.731l0.017,0.238l1.117,-0.299l0,-0.211c0,-0.359 0.263,-0.651 0.586,-0.651l1.851,0c0.323,0 0.585,0.292 0.585,0.651l0,0.184l0.974,0.227l0.01,-0.139c0.032,-0.435 0.411,-0.763 0.847,-0.731c3.09,1.559 5.877,1.608 8.457,0.619c0.436,0.032 0.764,0.411 0.732,0.847l-0.116,1.578c-0.032,0.436 -0.343,0.535 -0.847,0.732c-3.025,1.18 -5.828,0.863 -8.457,-0.619c-0.385,-0.217 -0.764,-0.412 -0.732,-0.847l0.02,-0.274l-0.891,-0.207c-0.031,0.327 -0.28,0.582 -0.582,0.582l-1.851,0c-0.289,0 -0.53,-0.233 -0.577,-0.539l-1.039,0.278Zm3.262,-1.32c-0,-0.153 -0.124,-0.277 -0.277,-0.277l-0.883,-0c-0.153,-0 -0.277,0.124 -0.277,0.277l0,0.555c0,0.153 0.124,0.277 0.277,0.277l0.883,0c0.153,0 0.277,-0.124 0.277,-0.277l-0,-0.555Zm-12.896,14.009l0.896,-9.82c0,-0 3.693,1.928 7.148,-0.487l1.05,10.307l-9.094,0Zm15.161,0l0.995,-10.307c3.454,2.415 7.147,0.487 7.147,0.487l0.208,4.519l0.312,5.301l-8.662,0Zm1.655,-15.727l0.042,-0.892c0,-0 -2.442,-1.381 -3.249,-3.292c-0,-0 -0.595,-1.784 -0.468,-2.422l1.717,-0.852l0.294,1.578c0,0 0.202,0.748 0.857,1.42l-0.548,-5.493l1.915,-0.391l0.411,1.559l0.308,-0.028l0.219,-1.639l2.123,-0.03l0.14,1.792l0.282,0.041l0.424,-1.578l2.272,0.487l-0.087,1.779l0.314,0.06l0.394,-1.463l1.636,1.008c0,-0 -0.955,4.837 -2.399,7.443l0.027,0.924c0,0 -2.809,2.262 -6.624,-0.011Zm-9.432,0c-3.816,2.273 -6.625,0.011 -6.625,0.011l0.027,-0.924c-1.444,-2.606 -2.399,-7.443 -2.399,-7.443l1.636,-1.008l0.366,1.405l0.313,-0.06l-0.058,-1.721l2.272,-0.487l0.395,1.52l0.282,-0.041l0.169,-1.734l2.123,0.03l0.191,1.581l0.307,0.028l0.44,-1.501l1.916,0.391l-0.548,5.493c0.655,-0.672 0.856,-1.42 0.856,-1.42l0.295,-1.578l1.716,0.852c0.127,0.638 -0.467,2.422 -0.467,2.422c-0.807,1.911 -3.25,3.292 -3.25,3.292l0.043,0.892Z"/></g></svg>