<?xml version="1.0" encoding="UTF-8" standalone="no"?><!DOCTYPE svg PUBLIC "-//W3C//DTD SVG 1.1//EN" "http://www.w3.org/Graphics/SVG/1.1/DTD/svg11.dtd"><svg width="100%" height="100%" viewBox="0 0 30 30" version="1.1" xmlns="http://www.w3.org/2000/svg" xmlns:xlink="http://www.w3.org/1999/xlink" xml:space="preserve" xmlns:serif="http://www.serif.com/" style="fill-rule:evenodd;clip-rule:evenodd;stroke-linejoin:round;stroke-miterlimit:2;"><g><path d="M3.161,30c0.132,-0.443 0.291,-0.858 0.482,-1.237c1.175,-2.336 3.916,-2.913 5.751,-4.183c1.264,2.181 3.206,2.941 5.383,2.941c2.18,-0 4.125,-0.765 5.389,-2.953c1.837,1.266 4.641,2.139 5.819,4.472c0.152,0.302 0.284,0.623 0.397,0.96l-23.221,-0Zm4.15,-14c-0.531,0.024 -1.032,0.02 -1.497,-0.013c-1.983,-0.144 -3.343,-0.847 -3.82,-1.964c-0.088,-0.206 -0.145,-0.424 -0.172,-0.652c0.11,-0.004 0.219,-0.035 0.317,-0.095l0.719,-0.437c-0.031,0.276 -0.002,0.535 0.099,0.773c0.162,0.379 0.492,0.662 0.938,0.875c0.525,0.25 1.203,0.397 1.995,0.454c0.458,0.033 0.953,0.036 1.479,0.009c1.87,-0.098 4.127,-0.575 6.511,-1.416c-1.836,-1.15 -3.406,-2.405 -4.597,-3.619c-0.788,-0.804 -1.41,-1.59 -1.833,-2.317c-0.675,0.457 -1.29,0.923 -1.836,1.39l-1.047,-0.086l-0.117,-0.28c0.722,-0.663 1.578,-1.33 2.546,-1.978c-0.312,-0.871 -0.29,-1.637 0.053,-2.231c0.402,-0.696 1.228,-1.129 2.397,-1.226c0.936,-0.077 2.114,0.06 3.439,0.397c3.685,-1.466 7.192,-2.117 9.677,-1.938c1.106,0.08 2.018,0.334 2.692,0.737l-0.06,0.143l-1.455,0.119c-0.141,0.012 -0.27,0.068 -0.373,0.156c-0.274,-0.051 -0.568,-0.087 -0.88,-0.11c-2.081,-0.15 -4.911,0.326 -7.948,1.393c1.518,0.527 3.159,1.275 4.808,2.227c1.263,0.729 2.42,1.514 3.439,2.314c0.613,-0.525 1.139,-1.052 1.566,-1.567c0.042,-0.051 0.083,-0.102 0.124,-0.153c0.201,0.103 0.444,0.097 0.641,-0.023l1.008,-0.613c-0.233,0.473 -0.556,0.962 -0.966,1.457c-0.427,0.516 -0.949,1.044 -1.553,1.572c1.638,1.404 2.827,2.819 3.397,4.025c0.5,1.06 0.538,1.992 0.137,2.688c-0.402,0.696 -1.228,1.129 -2.396,1.226c-0.717,0.059 -1.577,-0.008 -2.536,-0.194c-2.07,-0.402 -4.605,-1.362 -7.17,-2.818c-2.831,1.079 -5.536,1.674 -7.726,1.775Zm13.23,-5.71c0.5,-0.326 0.971,-0.657 1.409,-0.991c-0.934,-0.718 -1.986,-1.422 -3.128,-2.08c-2.051,-1.185 -4.084,-2.047 -5.858,-2.537c-0.153,0.063 -0.306,0.127 -0.459,0.193c-1.524,0.65 -2.932,1.383 -4.176,2.154c0.086,0.149 0.181,0.302 0.286,0.458c0.354,0.528 0.812,1.082 1.36,1.646c1.285,1.323 3.062,2.701 5.151,3.932c0.248,-0.098 0.496,-0.201 0.745,-0.307c1.729,-0.739 3.309,-1.582 4.67,-2.468Zm-9.828,-1.8c1.169,-0.887 2.565,-1.386 4.062,-1.386c2.001,-0 3.82,0.891 5.161,2.411c-1.301,0.84 -2.805,1.639 -4.45,2.342c-0.092,0.039 -0.184,0.078 -0.276,0.116c-1.811,-1.106 -3.358,-2.316 -4.497,-3.483Zm0.489,-4.184c-0.245,-0.034 -0.481,-0.06 -0.708,-0.075c-0.672,-0.046 -1.254,-0.006 -1.718,0.138c-0.372,0.115 -0.66,0.293 -0.819,0.568c-0.159,0.275 -0.169,0.613 -0.082,0.993c0.009,0.043 0.021,0.087 0.033,0.131c1.006,-0.617 2.111,-1.209 3.294,-1.755Zm11.037,11.681c0.517,0.106 1.005,0.175 1.455,0.206c0.672,0.045 1.255,0.005 1.718,-0.138c0.373,-0.115 0.66,-0.293 0.819,-0.568c0.159,-0.275 0.169,-0.613 0.083,-0.993c-0.108,-0.473 -0.365,-0.998 -0.74,-1.557c-0.63,-0.937 -1.584,-1.955 -2.786,-2.966c-0.524,0.41 -1.094,0.816 -1.707,1.214c-1.4,0.91 -3.019,1.776 -4.791,2.533c2.135,1.137 4.21,1.912 5.949,2.269Zm-0.745,-3.903c0.35,0.879 0.588,1.849 0.69,2.891c-1.097,-0.246 -2.325,-0.664 -3.612,-1.234c1.047,-0.524 2.027,-1.082 2.922,-1.657Zm-0.817,5.594c0.492,0.136 0.966,0.247 1.42,0.333c-0.112,0.719 -0.287,1.408 -0.517,2.059c-0.279,0.716 -0.628,1.381 -1.035,1.982c0.021,0.013 -2.282,3.631 -5.77,3.631c-3.981,-0 -5.771,-3.614 -5.744,-3.631c-0.556,-0.821 -1.003,-1.762 -1.312,-2.789c-0.197,-0.726 -0.327,-1.492 -0.381,-2.285c2.173,-0.1 4.828,-0.656 7.618,-1.677c0.725,0.398 1.447,0.757 2.157,1.076l-0.038,0.091l-1.222,0.1c-0.246,0.021 -0.455,0.186 -0.532,0.421c-0.076,0.234 -0.004,0.492 0.183,0.653l0.929,0.799l-0.281,1.193c-0.057,0.24 0.036,0.491 0.235,0.636c0.2,0.145 0.467,0.155 0.678,0.027l1.047,-0.636l1.047,0.636c0.211,0.128 0.478,0.118 0.678,-0.027c0.199,-0.145 0.292,-0.396 0.235,-0.636l-0.281,-1.193l0.886,-0.763Zm-17.011,-15.151c0.335,0 0.607,0.272 0.607,0.607c0,0.335 -0.272,0.607 -0.607,0.607c-0.335,-0 -0.607,-0.272 -0.607,-0.607c0,-0.335 0.272,-0.607 0.607,-0.607Zm24.774,7.274c0.335,-0 0.607,0.272 0.607,0.607c-0,0.334 -0.272,0.606 -0.607,0.606c-0.335,0 -0.607,-0.272 -0.607,-0.606c-0,-0.335 0.272,-0.607 0.607,-0.607Zm-2.964,9.359c0.21,-0 0.381,0.17 0.381,0.38c-0,0.21 -0.171,0.381 -0.381,0.381c-0.21,-0 -0.38,-0.171 -0.38,-0.381c-0,-0.21 0.17,-0.38 0.38,-0.38Zm0.705,-9.35c0.21,0 0.381,0.171 0.381,0.381c-0,0.21 -0.171,0.38 -0.381,0.38c-0.21,-0 -0.38,-0.17 -0.38,-0.38c-0,-0.21 0.17,-0.381 0.38,-0.381Zm-23.037,-1.697c0.042,-0.101 0.14,-0.167 0.25,-0.167c0.109,0 0.207,0.066 0.249,0.167l0.548,1.307l1.412,0.117c0.109,0.009 0.202,0.082 0.236,0.186c0.033,0.104 0.002,0.218 -0.081,0.289l-1.075,0.924l0.326,1.38c0.025,0.106 -0.016,0.217 -0.104,0.281c-0.089,0.064 -0.207,0.069 -0.3,0.013l-1.211,-0.737l-1.212,0.737c-0.093,0.056 -0.211,0.051 -0.3,-0.013c-0.088,-0.064 -0.129,-0.175 -0.104,-0.281l0.326,-1.38l-1.075,-0.924c-0.082,-0.071 -0.114,-0.185 -0.081,-0.289c0.034,-0.104 0.127,-0.177 0.236,-0.186l1.413,-0.117l0.547,-1.307Zm22.998,-6.112c0.037,-0.09 0.124,-0.148 0.221,-0.148c0.097,0 0.185,0.058 0.222,0.148l0.486,1.16l1.253,0.104c0.097,0.007 0.179,0.073 0.209,0.165c0.03,0.092 0.002,0.193 -0.072,0.256l-0.953,0.821l0.289,1.224c0.022,0.094 -0.014,0.193 -0.093,0.25c-0.078,0.057 -0.183,0.061 -0.266,0.011l-1.075,-0.654l-1.075,0.654c-0.083,0.05 -0.187,0.046 -0.266,-0.011c-0.078,-0.057 -0.115,-0.156 -0.092,-0.25l0.289,-1.224l-0.954,-0.821c-0.073,-0.063 -0.102,-0.164 -0.072,-0.256c0.03,-0.092 0.113,-0.158 0.209,-0.165l1.254,-0.104l0.486,-1.16Zm-21.555,2.7c0.21,0 0.381,0.171 0.381,0.381c-0,0.21 -0.171,0.38 -0.381,0.38c-0.21,0 -0.38,-0.17 -0.38,-0.38c-0,-0.21 0.17,-0.381 0.38,-0.381Zm13.339,11.404c0.031,-0.075 0.105,-0.124 0.186,-0.124c0.081,-0 0.155,0.049 0.186,0.124l0.408,0.974l1.052,0.086c0.081,0.007 0.15,0.062 0.175,0.139c0.025,0.077 0.002,0.162 -0.06,0.215l-0.8,0.689l0.242,1.027c0.019,0.079 -0.012,0.162 -0.077,0.21c-0.066,0.048 -0.154,0.051 -0.224,0.009l-0.902,-0.548l-0.902,0.548c-0.07,0.042 -0.158,0.039 -0.223,-0.009c-0.066,-0.048 -0.097,-0.131 -0.078,-0.21l0.243,-1.027l-0.801,-0.689c-0.061,-0.053 -0.085,-0.138 -0.06,-0.215c0.025,-0.077 0.094,-0.132 0.175,-0.139l1.052,-0.086l0.408,-0.974Zm-10.414,-2.144c0.23,-1.202 0.647,-2.289 1.21,-3.226c0.826,0.825 1.811,1.664 2.928,2.476c-1.496,0.416 -2.902,0.67 -4.138,0.75Zm-1.953,3.738c0.485,0 0.879,0.394 0.879,0.879c0,0.485 -0.394,0.878 -0.879,0.878c-0.484,0 -0.878,-0.393 -0.878,-0.878c-0,-0.485 0.394,-0.879 0.878,-0.879Z"/></g></svg>